<svg xmlns="http://www.w3.org/2000/svg" width="800" height="211" viewBox="0 0 800 211">
<g>
<path d="M 106.00 114.92 L 106.00 142.77 L 103.25 143.16 C102.83,143.22 102.44,143.29 102.08,143.35 C100.84,143.56 99.90,143.72 99.19,143.39 C96.98,142.35 96.98,136.55 97.00,112.65 C97.00,110.40 97.00,108.00 97.00,105.43 L 97.00 68.00 L 113.93 68.00 C123.47,68.00 132.10,68.46 133.68,69.06 C142.88,72.54 146.98,84.65 143.88,99.13 C142.98,103.32 141.81,105.29 138.02,108.98 L 133.29 113.59 L 140.07 128.30 C143.80,136.38 146.78,143.04 146.68,143.10 C145.66,143.67 138.25,143.76 137.45,143.22 C136.87,142.82 133.67,136.43 130.34,129.00 L 124.29 115.50 L 115.15 115.21 ZM 395.00 120.00 L 395.00 143.00 L 385.00 143.00 L 385.00 106.50 C385.00,86.43 385.34,70.01 385.75,70.02 C386.16,70.04 394.83,80.90 405.00,94.16 C428.81,125.20 429.36,125.89 430.25,125.95 C430.66,125.98 431.00,113.18 431.00,97.50 L 431.00 69.00 L 441.00 69.00 L 441.00 143.00 L 436.67 143.00 C433.47,143.00 431.81,142.42 430.27,140.75 C428.36,138.68 415.17,121.60 402.05,104.22 C399.06,100.25 396.25,97.00 395.80,97.00 C395.36,97.00 395.00,107.35 395.00,120.00 ZM 310.25 144.30 C298.17,147.71 290.82,147.15 280.41,142.03 C267.65,135.75 259.01,122.85 258.20,108.87 C257.64,99.26 259.26,92.15 263.68,84.78 C267.74,78.01 272.82,73.43 280.72,69.43 C285.75,66.88 287.81,66.46 296.50,66.17 C304.78,65.89 307.44,66.20 312.00,67.93 C318.26,70.32 327.00,76.37 327.00,78.32 C327.00,79.04 325.65,80.92 324.00,82.50 L 320.99 85.38 L 318.25 83.16 C301.63,69.73 277.19,75.63 269.94,94.83 C268.26,99.29 267.90,102.00 268.25,107.50 C269.02,119.68 275.07,128.41 286.32,133.55 C291.43,135.89 293.02,136.15 299.32,135.68 C303.27,135.39 307.71,134.85 309.20,134.47 C311.52,133.88 312.18,134.25 313.95,137.14 C315.07,138.99 315.99,140.99 316.00,141.59 C316.00,142.19 313.41,143.41 310.25,144.30 ZM 61.59 141.53 C44.06,146.73 23.48,136.76 15.10,119.00 C12.79,114.12 12.50,112.26 12.50,102.50 C12.50,92.22 12.71,91.07 15.63,85.00 C19.60,76.77 26.51,69.86 34.90,65.73 C40.98,62.73 42.18,62.50 51.48,62.53 C63.38,62.56 70.32,64.84 77.17,70.95 L 81.50 74.83 L 74.73 81.88 L 71.11 79.00 C58.14,68.68 40.03,70.21 29.18,82.53 C23.69,88.76 21.63,95.27 22.21,104.45 C22.81,113.77 26.48,120.80 33.49,126.05 C42.28,132.63 50.34,134.32 59.59,131.51 C59.93,131.41 60.26,131.31 60.56,131.22 C63.37,130.36 64.62,129.97 65.51,130.38 C66.33,130.75 66.85,131.78 67.99,133.70 C70.08,137.25 70.10,137.46 68.35,138.73 C67.35,139.46 64.31,140.72 61.59,141.53 ZM 190.00 133.00 L 190.00 143.00 L 176.67 143.00 C169.33,143.00 163.03,142.70 162.67,142.33 C162.30,141.97 162.00,125.32 162.00,105.33 L 162.00 69.00 L 190.00 69.00 L 190.00 79.00 L 172.00 79.00 L 172.00 101.00 L 190.00 101.00 L 190.00 111.00 L 172.00 111.00 L 172.00 133.00 ZM 234.23 143.38 C227.47,147.71 220.13,147.26 214.01,142.15 L 210.75 139.43 L 214.42 136.63 C217.89,133.98 218.22,133.91 220.51,135.41 C225.13,138.44 229.92,137.03 231.98,132.04 C234.16,126.79 232.01,123.62 223.47,119.52 C212.96,114.46 207.23,106.63 206.27,96.02 C205.24,84.68 210.72,74.18 220.72,68.32 C227.31,64.46 238.51,63.87 245.79,67.01 C248.66,68.24 251.00,69.58 251.00,69.99 C251.00,70.40 250.02,72.03 248.81,73.62 C247.61,75.20 246.56,76.62 246.47,76.76 C246.38,76.91 244.68,76.35 242.69,75.51 C228.78,69.70 212.85,82.05 215.57,96.53 C216.39,100.91 223.60,109.12 228.73,111.52 C235.14,114.52 238.16,117.14 240.09,121.40 C243.83,129.62 241.38,138.81 234.23,143.38 ZM 365.00 139.58 L 365.00 143.00 L 338.00 143.00 L 338.00 69.00 L 351.75 69.00 L 365.50 69.00 L 365.15 74.00 L 364.81 79.00 L 347.00 79.00 L 347.00 101.00 L 356.61 101.00 C364.96,101.00 366.13,101.21 365.61,102.58 C365.27,103.45 365.00,105.70 365.00,107.58 L 365.00 111.00 L 347.00 111.00 L 347.00 133.00 L 356.61 133.00 C364.96,133.00 366.13,133.21 365.61,134.58 C365.27,135.45 365.00,137.70 365.00,139.58 ZM 482.50 78.50 L 481.97 143.00 L 473.03 143.00 L 472.50 78.50 L 463.25 78.21 L 454.00 77.92 L 454.00 69.00 L 501.00 69.00 L 501.00 77.92 L 491.75 78.21 ZM 106.67 105.33 C107.03,105.70 111.32,106.00 116.20,106.00 C126.06,106.00 130.96,104.51 133.42,100.77 C137.02,95.27 136.21,83.21 131.95,78.95 C130.23,77.23 128.56,77.00 118.00,77.00 L 106.00 77.00 L 106.00 90.83 C106.00,98.44 106.30,104.97 106.67,105.33 Z" fill="rgb(24,86,108)"/>
<path d="M 637.00 113.50 L 637.00 140.00 L 614.00 140.00 L 614.00 34.93 L 616.25 36.13 C617.49,36.79 624.35,42.81 631.50,49.52 C638.65,56.23 655.30,71.71 668.50,83.93 L 692.50 106.15 L 692.76 56.07 L 693.02 6.00 L 716.00 6.00 L 716.00 140.00 L 695.83 140.00 L 676.17 121.76 C665.35,111.73 653.80,100.98 650.50,97.87 C643.38,91.16 638.44,87.00 637.61,87.00 C637.27,87.00 637.00,98.93 637.00,113.50 ZM 544.49 144.53 C537.49,146.30 532.32,146.97 526.12,146.88 C516.40,146.75 507.00,145.30 507.00,143.94 C507.00,143.01 507.64,142.82 517.12,141.00 C543.32,135.95 564.00,109.37 564.00,80.75 C564.00,58.14 550.56,36.49 530.02,26.01 C519.02,20.40 500.51,18.35 488.96,21.48 C488.20,21.68 487.49,21.87 486.84,22.05 C481.53,23.49 479.51,24.04 479.36,23.72 C479.27,23.53 479.88,23.01 480.86,22.18 C481.06,22.01 481.27,21.83 481.50,21.64 C485.97,17.80 499.55,11.42 507.50,9.41 C517.37,6.91 534.93,7.13 545.29,9.87 C558.48,13.37 568.22,19.10 578.55,29.44 C585.44,36.35 588.47,40.28 591.30,46.00 C596.04,55.58 599.00,67.34 599.00,76.61 C599.00,108.71 576.84,136.32 544.49,144.53 ZM 789.78 129.27 L 789.50 139.50 L 762.72 139.77 C741.85,139.97 735.84,139.75 735.47,138.77 C735.20,138.07 735.10,110.50 735.24,77.50 L 735.50 17.50 L 789.50 17.50 L 789.50 38.50 L 757.50 39.50 L 757.50 67.50 L 789.50 68.50 L 789.50 89.50 L 773.22 89.77 L 756.95 90.05 L 757.22 104.27 L 757.50 118.50 L 773.78 118.77 L 790.07 119.05 Z" fill="rgb(126,167,172)"/>
<path d="M 511.01 145.54 C510.55,145.46 510.09,145.37 509.63,145.29 C501.14,143.65 500.85,142.04 509.04,142.02 C510.59,142.01 512.24,141.87 513.95,141.61 C507.49,142.88 507.00,143.13 507.00,143.94 C507.00,144.49 508.54,145.06 511.01,145.54 ZM 517.58 140.90 C524.01,139.39 530.93,136.44 536.66,132.70 C530.87,136.67 524.42,139.52 517.58,140.90 ZM 526.56 146.89 C522.66,146.93 518.71,146.67 514.66,146.11 C517.96,146.53 522.02,146.82 526.12,146.88 C526.27,146.88 526.41,146.88 526.56,146.89 ZM 562.19 66.38 C560.77,60.92 558.67,55.74 555.98,50.96 C558.73,55.80 560.83,60.99 562.19,66.38 Z" fill="rgb(168,202,213)"/>
</g>
</svg>